# xmcd
#
# Track frame offsets:
#	150
#	17895
#	39265
#	53145
#	74225
#	93175
#	119700
#	156995
#	180795
#	211775
#	229500
#
# Disc length: 3615 seconds
#
# Revision: 0
# Processed by: cddbd v1.5.2PL0 Copyright (c) Steve Scherf et al.
# Submitted via: dBpowerAMP V4.0
#
DISCID=8d0e1d0b
DTITLE=Stevie Ray Vaugh - SRV19900825
DYEAR=1990
DGENRE=Blues
TTITLE0=Tightrope
TTITLE1=The Things I Used to Do
TTITLE2=Let Me Love You, Baby
TTITLE3=Leave My Little Girl Alone
TTITLE4=Look at my Little Sister
TTITLE5=Wall of Denial
TTITLE6=Riviera Paradise
TTITLE7=Superstition
TTITLE8=Couldn't Stand the Weather>Goin' Down
TTITLE9=Crossfire
TTITLE10=Voodoo Chile
EXTD=
EXTT0=
EXTT1=
EXTT2=
EXTT3=
EXTT4=
EXTT5=
EXTT6=
EXTT7=
EXTT8=
EXTT9=
EXTT10=
PLAYORDER=
